<?xml version="1.0" encoding="UTF-8" standalone="no"?>
<!-- Created with Inkscape (http://www.inkscape.org/) -->

<svg
   xmlns:dc="http://purl.org/dc/elements/1.1/"
   xmlns:cc="http://creativecommons.org/ns#"
   xmlns:rdf="http://www.w3.org/1999/02/22-rdf-syntax-ns#"
   xmlns:svg="http://www.w3.org/2000/svg"
   xmlns="http://www.w3.org/2000/svg"
   xmlns:sodipodi="http://sodipodi.sourceforge.net/DTD/sodipodi-0.dtd"
   xmlns:inkscape="http://www.inkscape.org/namespaces/inkscape"
   width="141.1111mm"
   height="141.1111mm"
   viewBox="0 0 141.1111 141.1111"
   version="1.1"
   id="svg8"
   inkscape:version="0.92.0 r15299"
   sodipodi:docname="logo.svg">
  <defs
     id="defs2" />
  <sodipodi:namedview
     id="base"
     pagecolor="#ffffff"
     bordercolor="#666666"
     borderopacity="1.0"
     inkscape:pageopacity="0.0"
     inkscape:pageshadow="2"
     inkscape:zoom="1.4"
     inkscape:cx="364.89384"
     inkscape:cy="253.47644"
     inkscape:document-units="mm"
     inkscape:current-layer="svg8"
     showgrid="true"
     inkscape:window-width="1536"
     inkscape:window-height="801"
     inkscape:window-x="-8"
     inkscape:window-y="-8"
     inkscape:window-maximized="1">
    <inkscape:grid
       type="xygrid"
       id="grid5029" />
  </sodipodi:namedview>
  <metadata
     id="metadata5">
    <rdf:RDF>
      <cc:Work
         rdf:about="">
        <dc:format>image/svg+xml</dc:format>
        <dc:type
           rdf:resource="http://purl.org/dc/dcmitype/StillImage" />
        <dc:title />
      </cc:Work>
    </rdf:RDF>
  </metadata>
  <g
     inkscape:label="Capa 1"
     inkscape:groupmode="layer"
     id="layer1"
     transform="translate(-30.472328,-30.803156)" />
  <circle
     style="opacity:1;fill:#2b538e;fill-opacity:1;stroke:#142544;stroke-width:1.61961091;stroke-miterlimit:4;stroke-dasharray:none;stroke-opacity:1"
     id="path3713"
     cx="70.381859"
     cy="71.868553"
     r="67.951355" />
  <g
     id="g5150"
     transform="matrix(1.2222222,0,0,1.2222222,166.66667,9.8336463)">
    <path
       style="opacity:1;fill:#000000;fill-opacity:1;stroke:#142544;stroke-width:0;stroke-miterlimit:4;stroke-dasharray:none;stroke-opacity:1"
       d="m -51,57.111099 h 2.999999 V 81.111097 H -51 Z"
       id="rect4526"
       inkscape:connector-curvature="0" />
    <path
       style="opacity:1;fill:#000000;fill-opacity:1;stroke:#142544;stroke-width:0;stroke-miterlimit:4;stroke-dasharray:none;stroke-opacity:1"
       d="m -54,51.111099 h 2.999999 v 5.999999 H -54 Z"
       id="rect4526-6"
       inkscape:connector-curvature="0" />
    <path
       style="opacity:1;fill:#000000;fill-opacity:1;stroke:#142544;stroke-width:0;stroke-miterlimit:4;stroke-dasharray:none;stroke-opacity:1"
       d="m -56.967148,48.111099 h 2.999999 v 2.999999 h -2.999999 z"
       id="rect4526-6-6"
       inkscape:connector-curvature="0" />
    <path
       style="opacity:1;fill:#000000;fill-opacity:1;stroke:#142544;stroke-width:0;stroke-miterlimit:4;stroke-dasharray:none;stroke-opacity:1"
       d="m -60,45.111099 h 2.999999 v 2.999999 H -60 Z"
       id="rect4526-6-6-2"
       inkscape:connector-curvature="0" />
    <path
       style="opacity:1;fill:#000000;fill-opacity:1;stroke:#142544;stroke-width:0;stroke-miterlimit:4;stroke-dasharray:none;stroke-opacity:1"
       d="m -63,39.111099 h 2.999999 v 5.999999 H -63 Z"
       id="rect4526-6-6-2-2"
       inkscape:connector-curvature="0" />
    <path
       style="opacity:1;fill:#000000;fill-opacity:1;stroke:#142544;stroke-width:0;stroke-miterlimit:4;stroke-dasharray:none;stroke-opacity:1"
       d="m -66,30.111099 h 2.999999 v 8.999999 H -66 Z"
       id="rect4526-6-6-2-2-2"
       inkscape:connector-curvature="0" />
    <path
       style="opacity:1;fill:#000000;fill-opacity:1;stroke:#142544;stroke-width:0;stroke-miterlimit:4;stroke-dasharray:none;stroke-opacity:1"
       d="m -69,24.111099 h 2.999999 v 5.999999 H -69 Z"
       id="rect4526-6-6-2-2-2-4"
       inkscape:connector-curvature="0" />
    <path
       style="opacity:1;fill:#000000;fill-opacity:1;stroke:#142544;stroke-width:0;stroke-miterlimit:4;stroke-dasharray:none;stroke-opacity:1"
       d="m -93,21.111101 h 23.999998 V 24.1111 H -93 Z"
       id="rect4526-6-6-2-2-2-4-2"
       inkscape:connector-curvature="0" />
    <path
       style="opacity:1;fill:#000000;fill-opacity:1;stroke:#142544;stroke-width:0;stroke-miterlimit:4;stroke-dasharray:none;stroke-opacity:1"
       d="m -84,24.111101 h 8.999999 V 27.1111 H -84 Z"
       id="rect4526-6-6-2-2-2-4-2-4"
       inkscape:connector-curvature="0" />
    <path
       style="opacity:1;fill:#000000;fill-opacity:1;stroke:#142544;stroke-width:0;stroke-miterlimit:4;stroke-dasharray:none;stroke-opacity:1"
       d="m -78,15.111099 h 2.999999 v 5.999999 H -78 Z"
       id="rect4526-6-6-2-2-2-4-5"
       inkscape:connector-curvature="0" />
    <path
       style="opacity:1;fill:#000000;fill-opacity:1;stroke:#142544;stroke-width:0;stroke-miterlimit:4;stroke-dasharray:none;stroke-opacity:1"
       d="m -75,12.1111 h 2.999999 v 2.999999 H -75 Z"
       id="rect4526-6-6-2-2-2-4-5-1"
       inkscape:connector-curvature="0" />
    <path
       style="opacity:1;fill:#000000;fill-opacity:1;stroke:#142544;stroke-width:0;stroke-miterlimit:4;stroke-dasharray:none;stroke-opacity:1"
       d="m -72,6.1110992 h 2.999999 V 12.111098 H -72 Z"
       id="rect4526-6-6-2-2-2-4-5-1-1"
       inkscape:connector-curvature="0" />
    <path
       style="opacity:1;fill:#000000;fill-opacity:1;stroke:#142544;stroke-width:0;stroke-miterlimit:4;stroke-dasharray:none;stroke-opacity:1"
       d="m -75,3.1111002 h 2.999999 v 2.999999 H -75 Z"
       id="rect4526-6-6-2-2-2-4-5-1-6"
       inkscape:connector-curvature="0" />
    <path
       style="opacity:1;fill:#000000;fill-opacity:1;stroke:#142544;stroke-width:0;stroke-miterlimit:4;stroke-dasharray:none;stroke-opacity:1"
       d="m -78,6.1111002 h 2.999999 v 2.999999 H -78 Z"
       id="rect4526-6-6-2-2-2-4-5-1-6-2"
       inkscape:connector-curvature="0" />
    <path
       style="opacity:1;fill:#000000;fill-opacity:1;stroke:#142544;stroke-width:0;stroke-miterlimit:4;stroke-dasharray:none;stroke-opacity:1"
       d="m -81,9.1111002 h 2.999999 V 15.111099 H -81 Z"
       id="rect4526-6-6-2-2-2-4-5-1-6-2-6"
       inkscape:connector-curvature="0" />
    <path
       style="opacity:1;fill:#000000;fill-opacity:1;stroke:#142544;stroke-width:0;stroke-miterlimit:4;stroke-dasharray:none;stroke-opacity:1"
       d="m -84,15.1111 h 2.999999 v 5.999999 H -84 Z"
       id="rect4526-6-6-2-2-2-4-5-1-6-2-6-3"
       inkscape:connector-curvature="0" />
    <path
       style="opacity:1;fill:#000000;fill-opacity:1;stroke:#142544;stroke-width:0;stroke-miterlimit:4;stroke-dasharray:none;stroke-opacity:1"
       d="m -96,24.111099 h 2.999999 V 39.111098 H -96 Z"
       id="rect4526-6-6-2-2-2-6"
       inkscape:connector-curvature="0" />
    <path
       style="opacity:1;fill:#000000;fill-opacity:1;stroke:#142544;stroke-width:0;stroke-miterlimit:4;stroke-dasharray:none;stroke-opacity:1"
       d="m -99,39.111099 h 2.999999 v 5.999999 H -99 Z"
       id="rect4526-6-6-2-2-2-4-6"
       inkscape:connector-curvature="0" />
    <path
       style="opacity:1;fill:#000000;fill-opacity:1;stroke:#142544;stroke-width:0;stroke-miterlimit:4;stroke-dasharray:none;stroke-opacity:1"
       d="m -102,45.111099 h 2.999999 v 5.999999 H -102 Z"
       id="rect4526-6-6-2-2-2-4-6-4"
       inkscape:connector-curvature="0" />
    <path
       style="opacity:1;fill:#000000;fill-opacity:1;stroke:#142544;stroke-width:0;stroke-miterlimit:4;stroke-dasharray:none;stroke-opacity:1"
       d="m -105,51.111099 h 3 v 2.999999 h -3 z"
       id="rect4526-6-6-2-8"
       inkscape:connector-curvature="0" />
    <path
       style="opacity:1;fill:#000000;fill-opacity:1;stroke:#142544;stroke-width:0;stroke-miterlimit:4;stroke-dasharray:none;stroke-opacity:1"
       d="m -108,54.111099 h 3 v 2.999999 h -3 z"
       id="rect4526-6-6-2-8-5"
       inkscape:connector-curvature="0" />
    <path
       style="opacity:1;fill:#000000;fill-opacity:1;stroke:#142544;stroke-width:0;stroke-miterlimit:4;stroke-dasharray:none;stroke-opacity:1"
       d="m -111,57.111099 h 3 v 23.999998 h -3 z"
       id="rect4526-0"
       inkscape:connector-curvature="0" />
    <path
       style="opacity:1;fill:#000000;fill-opacity:1;stroke:#142544;stroke-width:0;stroke-miterlimit:4;stroke-dasharray:none;stroke-opacity:1"
       d="m -107.96715,81.111099 h 3 v 2.999999 h -3 z"
       id="rect4526-6-6-2-8-5-8"
       inkscape:connector-curvature="0" />
    <path
       style="opacity:1;fill:#000000;fill-opacity:1;stroke:#142544;stroke-width:0;stroke-miterlimit:4;stroke-dasharray:none;stroke-opacity:1"
       d="m -105,84.111099 h 3 v 2.999999 h -3 z"
       id="rect4526-6-6-2-8-5-8-0"
       inkscape:connector-curvature="0" />
    <path
       style="opacity:1;fill:#000000;fill-opacity:1;stroke:#142544;stroke-width:0;stroke-miterlimit:4;stroke-dasharray:none;stroke-opacity:1"
       d="m -102,87.148872 h 17.999998 v 2.999999 H -102 Z"
       id="rect4526-6-6-2-8-5-8-0-4"
       inkscape:connector-curvature="0" />
    <path
       style="opacity:1;fill:#000000;fill-opacity:1;stroke:#142544;stroke-width:0;stroke-miterlimit:4;stroke-dasharray:none;stroke-opacity:1"
       d="m -84,84.111099 h 5.999999 v 2.999999 H -84 Z"
       id="rect4526-6-6-2-8-5-8-0-7"
       inkscape:connector-curvature="0" />
    <path
       style="opacity:1;fill:#000000;fill-opacity:1;stroke:#142544;stroke-width:0;stroke-miterlimit:4;stroke-dasharray:none;stroke-opacity:1"
       d="m -78,81.111099 h 11.999999 v 2.999999 H -78 Z"
       id="rect4526-6-6-2-8-5-8-0-7-6"
       inkscape:connector-curvature="0" />
    <path
       style="opacity:1;fill:#000000;fill-opacity:1;stroke:#142544;stroke-width:0;stroke-miterlimit:4;stroke-dasharray:none;stroke-opacity:1"
       d="m -66,84.111099 h 8.999999 v 2.999999 H -66 Z"
       id="rect4526-6-6-2-8-5-8-0-7-6-2"
       inkscape:connector-curvature="0" />
    <path
       style="opacity:1;fill:#000000;fill-opacity:1;stroke:#142544;stroke-width:0;stroke-miterlimit:4;stroke-dasharray:none;stroke-opacity:1"
       d="m -57,81.111099 h 5.999999 v 2.999999 H -57 Z"
       id="rect4526-6-6-2-8-5-8-0-7-9"
       inkscape:connector-curvature="0" />
  </g>
  <g
     id="g5155"
     transform="matrix(1.2222222,0,0,1.2222222,166.66667,9.8336463)">
    <path
       id="rect4748-1-5-4-4-5-5-94-9-6"
       style="opacity:1;fill:#232428;fill-opacity:1;stroke:#142544;stroke-width:0;stroke-miterlimit:4;stroke-dasharray:none;stroke-opacity:1"
       d="m -75,6.1110992 h 3 v 5.9999998 h -3 z m -3,3 h 3 v 5.9999998 h -3 z m -3,5.9999998 h 3 v 6 h -3 z"
       inkscape:connector-curvature="0" />
  </g>
  <path
     style="opacity:1;fill:#00b200;fill-opacity:1;stroke:#142544;stroke-width:0;stroke-miterlimit:4;stroke-dasharray:none;stroke-opacity:1"
     d="M 145.60813,418.49971 V 411.714 h -7.14286 -7.14286 v -55.35715 -55.35714 h 6.78572 6.78571 v -6.78571 -6.78572 h 7.14286 7.14286 v -6.78571 -6.78572 h 6.78571 6.78571 v -13.9027 -13.90271 l 6.96429,-0.20444 6.96429,-0.20443 0.19399,-13.75 0.194,-13.75 h 6.77029 6.77029 v -34.64286 -34.64286 h 20.35714 20.35714 v 6.78572 6.78571 h 21.07143 21.07143 v 13.92857 13.92858 h 13.54556 13.54557 l 0.20443,6.96428 0.20444,6.96429 6.96429,0.20443 6.96428,0.20444 v 6.75985 6.75985 h 6.78572 6.78571 v 13.92857 13.92857 h 7.14286 7.14285 v 27.5 27.5 h -7.14285 -7.14286 v 6.78571 6.78572 h -6.78571 -6.78572 v 13.92857 13.92857 h -7.14286 -7.14285 v 6.78572 6.78571 h -6.78572 -6.78571 v 7.14286 7.14285 h -6.78572 -6.78571 v 6.78572 6.78571 H 269.5367 255.60813 v 6.77733 6.77732 l -27.67857,0.18697 -27.67858,0.18695 -0.20443,6.96429 -0.20444,6.96429 H 185.9394 172.0367 v 6.78571 6.78571 h -13.21429 -13.21428 z"
     id="path70"
     inkscape:connector-curvature="0"
     transform="scale(0.26458333)" />
  <path
     style="opacity:1;fill:#008601;fill-opacity:1;stroke:#142544;stroke-width:0;stroke-miterlimit:4;stroke-dasharray:none;stroke-opacity:1"
     d="m 159.17956,432.42828 v -7.14286 h 6.42857 6.42857 v -6.78571 -6.78571 h 13.83148 13.83148 l 0.45424,-3.31398 c 0.24982,-1.8227 0.45423,-4.87627 0.45423,-6.78572 v -3.47173 h 17.7442 c 9.75932,0 22.13432,-0.21055 27.5,-0.46788 l 9.7558,-0.46788 v -6.67498 -6.67498 h 13.92857 13.92857 v -6.78571 -6.78572 h 6.78571 6.78572 v -7.14285 -7.14286 h 6.78571 6.78572 v -6.78571 -6.78572 h 7.14285 7.14286 v -13.92857 -13.92857 h 6.78572 6.78571 v -6.78572 -6.78571 h 7.14286 7.14285 v -20.71429 -20.71428 h 6.75985 6.75985 l 0.20444,6.96428 0.20443,6.96429 6.60715,0.20538 6.60714,0.20537 v 13.54463 13.54462 h 7.14286 7.14285 v 55.35714 55.35715 h -13.92857 -13.92857 v 6.78571 6.78571 h -20.35714 -20.35714 v -6.78571 -6.78571 h -28.21429 -28.21428 v 6.77029 6.77028 l -13.75,0.194 -13.75,0.194 -0.20444,6.96428 -0.20444,6.96429 h -41.04556 -41.04556 z"
     id="path72"
     inkscape:connector-curvature="0"
     transform="scale(0.26458333)" />
  <path
     style="opacity:1;fill:#008601;fill-opacity:1;stroke:#142544;stroke-width:0;stroke-miterlimit:4;stroke-dasharray:none;stroke-opacity:1"
     d="m 316.14384,204.04146 -4.82143,-0.24988 v -3.4391 c 0,-1.8915 -0.2044,-4.93039 -0.45423,-6.75308 l -0.45423,-3.31397 h -13.47434 -13.47434 v -20.71429 -20.71429 h 13.556 13.55601 l 0.19399,13.75 0.194,13.75 6.96429,0.20444 6.96428,0.20444 v 13.9027 13.90271 l -1.96428,-0.1399 c -1.08036,-0.077 -4.13393,-0.25235 -6.78572,-0.38978 z"
     id="path74"
     inkscape:connector-curvature="0"
     transform="scale(0.26458333)" />
</svg>
